<?xml version="1.0" encoding="utf-8"?>
<!-- Generator: Adobe Illustrator 19.1.0, SVG Export Plug-In . SVG Version: 6.00 Build 0)  -->
<svg version="1.1" id="Layer_1" xmlns="http://www.w3.org/2000/svg" xmlns:xlink="http://www.w3.org/1999/xlink" x="0px" y="0px"
	 viewBox="-49 141 512 512" style="enable-background:new -49 141 512 512;" xml:space="preserve">
<g>
	<g>
		<path d="M440.4,185.9H-26.4c-12.5,0-22.6,10.1-22.6,22.6v377.1c0,12.5,10.1,22.6,22.6,22.6h466.8c12.5,0,22.6-10.1,22.6-22.6
			V208.5C463,196,452.9,185.9,440.4,185.9z M440.4,585.5l-466.8,0c0,0,0,0,0,0V208.5h466.8V585.5z"/>
	</g>
</g>
<g>
	<g>
		<path d="M398,239.6H16c-6.2,0-11.3,5.1-11.3,11.3v249.8c0,6.2,5.1,11.3,11.3,11.3h382c6.2,0,11.3-5.1,11.3-11.3V250.9
			C409.3,244.6,404.2,239.6,398,239.6z M27.3,262.2h359.3v191.3l-71.2-71.2c-4.4-4.4-11.6-4.4-16,0L256,425.7l-99.6-99.6
			c-4.4-4.4-11.6-4.4-16,0L27.3,439.3L27.3,262.2L27.3,262.2z M27.3,489.4v-18.1l121.2-121.1l139.2,139.2H27.3z M386.7,489.4h-67v0
			L272,441.7l35.4-35.4l76.6,76.6c0.8,0.8,1.7,1.4,2.6,1.9L386.7,489.4L386.7,489.4z"/>
	</g>
</g>
<g>
	<g>
		<path d="M255.3,283.6c-23.6,0-42.7,19.2-42.7,42.7s19.2,42.7,42.7,42.7s42.7-19.2,42.7-42.7S278.9,283.6,255.3,283.6z
			 M255.3,346.5c-11.1,0-20.1-9-20.1-20.1c0-11.1,9-20.1,20.1-20.1c11.1,0,20.1,9,20.1,20.1C275.5,337.5,266.4,346.5,255.3,346.5z"
			/>
	</g>
</g>
<g>
	<g>
		<path d="M114.3,537.5H16c-6.2,0-11.3,5.1-11.3,11.3c0,6.2,5.1,11.3,11.3,11.3h98.3c6.2,0,11.3-5.1,11.3-11.3
			S120.6,537.5,114.3,537.5z"/>
	</g>
</g>
<g>
	<g>
		<path d="M191.7,537.5h-25.8c-6.2,0-11.3,5.1-11.3,11.3s5.1,11.3,11.3,11.3h25.8c6.2,0,11.3-5.1,11.3-11.3S197.9,537.5,191.7,537.5
			z"/>
	</g>
</g>
</svg>
