<?xml version="1.0" encoding="utf-8"?>
<!-- Generator: Adobe Illustrator 19.1.0, SVG Export Plug-In . SVG Version: 6.00 Build 0)  -->
<svg version="1.1" id="Layer_1" xmlns="http://www.w3.org/2000/svg" xmlns:xlink="http://www.w3.org/1999/xlink" x="0px" y="0px"
	 viewBox="424.2 265.1 256.3 243.9" style="enable-background:new 424.2 265.1 256.3 243.9;" xml:space="preserve">
<g>
	<g>
		<path d="M-5,247c-82.8,0-150,67.2-150,150S-87.8,547-5,547s150-67.2,150-150C145,314.2,77.8,247-5,247z M-84.2,473.8
			c-4,0-7.2-3.2-7.2-7.2V327.4c0-4,3.2-7.2,7.2-7.2H74.2c4,0,7.2,3.2,7.2,7.2v77.1H70.7h-6.1v-67.6H-74.7v93h7.9l32.1-50.1
			l21.5,33.5l10.7,16.6h9.2L-8.5,406l10-15.5l25.2,39.4h10.2v8.4v16.4V465h10.4h13.1v8.8L-84.2,473.8L-84.2,473.8z M52.3,368
			c0,8.2-6.7,14.9-14.9,14.9s-14.9-6.7-14.9-14.9c0-8.2,6.7-14.9,14.9-14.9S52.3,359.8,52.3,368z M87.1,454.6v23.4H70.7v-4.2v-19.2
			H47.2v-16.4h23.4v-23.4h10.8h5.6v23.4h23.4v16.4H87.1z"/>
	</g>
</g>
<g>
	<path d="M533.2,400.2c-7.3,6.2-11.3,15.1-10.4,23.4c0.6,5.7,3.5,10.7,8.3,14.8l10.6-19.3l16.7,9.1L548,447c5.7,1.5,11,1.4,15.6-0.2
		c5.4-1.9,9.6-6.1,12.1-11.9c7.7-17.9,5.8-46.6,3.8-62.8C567.1,378,547,388.6,533.2,400.2z"/>
	<path d="M676.8,385.7L561.4,268.9c-5-5-13.1-5-18.1,0L427.9,385.7c-7.9,8-2.3,21.7,9.1,21.7h26.7v90c0,6.4,5.2,11.7,11.7,11.7
		h155.3c6.4,0,11.7-5.2,11.7-11.7v-90h25.4C679,407.3,684.7,393.7,676.8,385.7z M593.2,442.4c-4.6,10.7-12.8,18.6-23.1,22.3
		c-3.7,1.3-8.5,2.4-14.2,2.4c-5,0-10.7-0.8-17.1-3l-12.4,22.6l-16.7-9.1l12.1-22.1c-10.3-7.5-16.6-17.8-17.9-29.6
		c-1.7-14.8,4.7-29.7,17.1-40.1c23.4-19.6,60.8-35.6,62.4-36.3l10.8-4.6l2.2,11.5C596.8,358.5,606.6,411,593.2,442.4z"/>
</g>
</svg>
